<?xml version="1.0" encoding="UTF-8"?>
<!DOCTYPE svg PUBLIC "-//W3C//DTD SVG 1.1//EN" "http://www.w3.org/Graphics/SVG/1.1/DTD/svg11.dtd">
<!-- Creator: CorelDRAW X7 -->
<svg xmlns="http://www.w3.org/2000/svg" xml:space="preserve" width="175mm" height="70mm" version="1.1" style="shape-rendering:geometricPrecision; text-rendering:geometricPrecision; image-rendering:optimizeQuality; fill-rule:evenodd; clip-rule:evenodd"
viewBox="0 0 17500 7000"
 xmlns:xlink="http://www.w3.org/1999/xlink">
 <defs>
  <style type="text/css">
   <![CDATA[
    .fil1 {fill:none}
    .fil0 {fill:#F9E244}
   ]]>
  </style>
 </defs>
 <g id="Camada_x0020_1">
  <metadata id="CorelCorpID_0Corel-Layer"/>
  <g id="_1601864730624">
   <path class="fil0" d="M937 4919c-717,-1334 -432,-2816 667,-3803 1195,-982 2859,-967 4003,85 1199,1100 1294,3001 207,4214 -1388,1550 -3802,1275 -4877,-496zm5404 -1505c0,-1538 -1245,-2783 -2783,-2783 -1537,0 -2783,1245 -2783,2783 0,1537 1246,2783 2783,2783 1538,0 2783,-1246 2783,-2783z"/>
   <path class="fil1" d="M6341 3414c0,1537 -1245,2783 -2783,2783 -1537,0 -2783,-1246 -2783,-2783 0,-1538 1246,-2783 2783,-2783 1538,0 2783,1245 2783,2783zm-3096 -2326c-80,7 -142,39 -186,96 -298,389 -113,1165 56,1598 6,18 33,13 33,-6 -6,-306 49,-594 167,-866 67,-156 324,-859 -70,-822zm435 -5c-157,-5 -168,128 -164,257 8,184 29,333 -41,509 -5,13 0,27 12,35 12,6 27,3 35,-8 80,-102 479,-784 158,-793zm-985 2299c42,-25 74,-16 96,27 82,157 131,326 147,505 1,15 -3,27 -13,37 -148,152 -509,598 -210,775 73,43 156,45 251,8 385,-153 426,-708 359,-1051 -6,-30 9,-80 30,-109 140,-192 377,-812 -79,-802 -55,1 -89,61 -61,109 100,174 119,355 55,544 -5,14 -25,17 -33,4 -119,-191 -298,-267 -538,-229 -894,143 -694,1550 -251,2015 288,303 765,411 1142,219 435,-222 590,-725 625,-1184 70,-895 80,-1791 30,-2689 -5,-80 -16,-177 -35,-291 -33,-197 -308,-181 -334,0 -102,717 -73,1446 -89,2168 -11,492 -13,2183 -743,1970 -320,-93 -534,-309 -641,-646 -135,-425 -137,-1121 292,-1380zm1622 -2000l85 -234c1,-3 -1,-6 -4,-7l-1 -1c-53,-19 -114,18 -137,82l-4 12c-24,64 0,132 53,151l2 0c2,1 5,0 6,-3zm-1508 -106c-41,-122 -175,-151 -250,-47 -179,247 88,602 245,789 13,17 40,7 39,-14 -2,-193 26,-552 -34,-728zm1780 -60c-315,-2 -298,510 -234,692 7,21 40,18 42,-5 27,-214 148,-391 258,-569 32,-52 -5,-118 -66,-118zm330 184c-478,-49 -432,596 -207,840 17,19 47,7 47,-18 0,-77 10,-151 31,-223 32,-108 407,-571 129,-599zm-1776 1604c-103,-314 -646,-1751 -1101,-1497 -268,150 -140,557 21,736 269,299 605,453 934,668 47,31 84,68 111,109 5,9 16,12 24,8 9,-5 14,-15 11,-24zm2105 -1323c-403,-14 -459,460 -384,753 4,15 24,19 33,6 112,-158 417,-498 422,-685 1,-40 -31,-73 -71,-74zm-3532 241c-115,-79 -216,29 -192,148 54,270 344,338 576,409 33,9 59,-30 36,-56 -130,-146 -263,-391 -420,-501zm3755 3c-153,33 -270,119 -349,258 -10,18 -5,25 15,20 129,-31 339,-43 413,-169 32,-56 -17,-122 -79,-109zm-1824 35c-333,-54 -447,511 -444,742 0,27 35,38 50,15 39,-56 61,-120 111,-168 144,-139 313,-274 359,-477 12,-52 -23,-104 -76,-112zm786 40c-146,20 -125,212 -114,313 1,13 17,19 26,10l168 -158c10,-10 17,-21 20,-35 16,-71 -14,-142 -100,-130zm1163 585c94,-235 -97,-466 -335,-380 -386,139 -339,575 -541,881 -82,124 -192,217 -329,282 -8,3 -11,11 -9,19 3,8 10,13 18,11 486,-82 1000,-324 1196,-813zm-802 -118c-29,-232 -311,-339 -398,-63 -81,260 37,566 -23,840 -12,58 6,70 54,36 287,-202 409,-473 367,-813zm976 -83c-124,-19 -114,183 -117,271 -1,18 6,23 22,13 70,-44 121,-103 153,-177 21,-46 -8,-99 -58,-107zm-2760 605c-445,-293 -912,-468 -1398,-523 -259,-29 -526,121 -370,412 309,577 1259,239 1756,164 27,-4 35,-38 12,-53zm2844 -322c-152,-64 -312,172 -354,282 -7,20 -1,28 20,23l371 -95c17,-4 31,-17 36,-34 28,-86 3,-145 -73,-176zm-1290 788c-41,4 -94,-18 -140,2 -15,6 -13,26 2,30 129,35 257,75 389,80 157,5 1350,-37 1090,-437 -186,-284 -573,0 -762,123 -174,115 -367,182 -579,202zm-2958 -198c-144,-49 -298,-196 -445,-187 -49,3 -86,47 -81,96 27,251 377,149 524,121 40,-7 41,-17 2,-30zm-430 509c294,310 829,-231 1008,-430 17,-19 0,-48 -24,-44 -204,38 -409,64 -614,80 -144,10 -585,166 -370,394zm4605 -239c105,36 193,14 262,-66 11,-13 14,-31 6,-47 -20,-40 -53,-58 -98,-54 -10,1 -19,5 -26,12l-148 136c-6,6 -4,16 4,19zm222 286c0,-372 -628,-214 -800,-180 -10,2 -11,16 -2,20 186,66 608,289 782,194 12,-7 20,-20 20,-34zm-301 140c-262,-194 -686,-279 -1004,-317 -90,-11 -209,-53 -317,-62 -20,-2 -27,25 -9,33 122,60 248,90 354,169 181,135 838,726 1077,534 119,-96 -7,-287 -101,-357zm-4413 437c9,148 221,167 320,112 278,-156 411,-586 458,-877 3,-19 -4,-24 -21,-14 -225,143 -777,481 -757,779zm3933 679c510,-413 -479,-1220 -800,-1390 -16,-8 -27,-11 -34,-9 -20,6 -28,32 -15,48 242,296 344,561 494,1042 49,156 143,337 320,323 13,-1 25,-6 35,-14zm-924 -297c14,18 38,22 57,11 351,-210 242,-700 51,-977 -14,-21 -47,-10 -46,16 7,251 -24,502 -92,753 -22,78 -12,143 30,197zm-3113 -702c125,17 228,-24 308,-124 12,-14 9,-22 -10,-23 -101,-4 -202,6 -303,28 -65,15 -61,110 5,119zm488 904c341,64 348,-513 317,-723 -4,-25 -37,-30 -49,-9 -88,166 -351,487 -326,670 5,32 28,56 58,62zm3911 -545c-117,-70 -232,-135 -346,-196 -17,-10 -36,10 -25,26 81,129 158,259 227,391 146,272 364,-89 144,-221zm-1082 1103c66,17 130,-3 192,-58 273,-242 119,-709 1,-1003 -10,-24 -45,-20 -49,5 -39,226 -106,447 -200,663 -42,94 -84,359 56,393zm-2812 -963c15,-38 4,-49 -34,-32l-195 87c-51,23 -32,99 24,95 99,-6 167,-57 205,-150zm391 740c208,-34 60,-490 13,-605 -5,-14 -25,-14 -30,0 -40,101 -278,652 17,605zm2068 -342c99,-1 91,-175 64,-236 -7,-15 -29,-15 -34,0l-70 179c-11,27 9,58 40,57zm-228 484c300,36 533,-455 580,-688 2,-11 -11,-18 -19,-11 -186,168 -531,386 -610,621 -12,36 12,73 49,78zm1113 -110c43,-137 2,-243 -124,-317 -16,-10 -23,-5 -21,14l38 303c3,21 19,39 40,44 33,8 55,-7 67,-44zm-2104 268c-285,-85 -362,-246 -591,-383 -42,-25 -94,14 -81,62 75,277 448,392 699,372 13,-1 19,-16 11,-26 -11,-12 -23,-21 -38,-25zm1421 -353c-58,56 -95,117 -163,160 -102,64 -190,140 -261,228 -35,42 -14,106 40,119 285,68 409,-267 412,-495 0,-14 -17,-22 -28,-12zm-453 271c-155,-20 -547,-19 -664,90 -50,45 -40,96 28,150 8,6 16,11 24,14 244,90 466,-48 623,-225 15,-16 11,-25 -11,-29z"/>
   <path class="fil0" d="M3245 1088c394,-37 137,666 70,822 -118,272 -173,560 -167,866 0,19 -27,24 -33,6 -169,-433 -354,-1209 -56,-1598 44,-57 106,-89 186,-96z"/>
   <path class="fil0" d="M3680 1083c321,9 -78,691 -158,793 -8,11 -23,14 -35,8 -12,-8 -17,-22 -12,-35 70,-176 49,-325 41,-509 -4,-129 7,-262 164,-257z"/>
   <path class="fil0" d="M2695 3382c-429,259 -427,955 -292,1380 107,337 321,553 641,646 730,213 732,-1478 743,-1970 16,-722 -13,-1451 89,-2168 26,-181 301,-197 334,0 19,114 30,211 35,291 50,898 40,1794 -30,2689 -35,459 -190,962 -625,1184 -377,192 -854,84 -1142,-219 -443,-465 -643,-1872 251,-2015 240,-38 419,38 538,229 8,13 28,10 33,-4 64,-189 45,-370 -55,-544 -28,-48 6,-108 61,-109 456,-10 219,610 79,802 -21,29 -36,79 -30,109 67,343 26,898 -359,1051 -95,37 -178,35 -251,-8 -299,-177 62,-623 210,-775 10,-10 14,-22 13,-37 -16,-179 -65,-348 -147,-505 -22,-43 -54,-52 -96,-27zm242 748c-144,165 -251,369 -117,545 11,14 33,14 43,-1 99,-135 132,-377 103,-536 -4,-23 -14,-26 -29,-8z"/>
   <path class="fil0" d="M4317 1382c-1,3 -4,4 -6,3l-2 0c-53,-19 -77,-87 -53,-151l4 -12c23,-64 84,-101 137,-82l1 1c3,1 5,4 4,7l-85 234z"/>
   <path class="fil0" d="M2559 1229c75,-104 209,-75 250,47 60,176 32,535 34,728 1,21 -26,31 -39,14 -157,-187 -424,-542 -245,-789z"/>
   <path class="fil0" d="M4589 1216c61,0 98,66 66,118 -110,178 -231,355 -258,569 -2,23 -35,26 -42,5 -64,-182 -81,-694 234,-692z"/>
   <path class="fil0" d="M4919 1400c278,28 -97,491 -129,599 -21,72 -31,146 -31,223 0,25 -30,37 -47,18 -225,-244 -271,-889 207,-840z"/>
   <path class="fil0" d="M2042 1507c455,-254 998,1183 1101,1497 3,9 -2,19 -11,24 -8,4 -19,1 -24,-8 -27,-41 -64,-78 -111,-109 -329,-215 -665,-369 -934,-668 -161,-179 -289,-586 -21,-736z"/>
   <path class="fil0" d="M5248 1681c40,1 72,34 71,74 -5,187 -310,527 -422,685 -9,13 -29,9 -33,-6 -75,-293 -19,-767 384,-753z"/>
   <path class="fil0" d="M1716 1922c157,110 290,355 420,501 23,26 -3,65 -36,56 -232,-71 -522,-139 -576,-409 -24,-119 77,-227 192,-148z"/>
   <path class="fil0" d="M5471 1925c62,-13 111,53 79,109 -74,126 -284,138 -413,169 -20,5 -25,-2 -15,-20 79,-139 196,-225 349,-258z"/>
   <path class="fil0" d="M3647 1960c53,8 88,60 76,112 -46,203 -215,338 -359,477 -50,48 -72,112 -111,168 -15,23 -50,12 -50,-15 -3,-231 111,-796 444,-742z"/>
   <path class="fil0" d="M4433 2000c86,-12 116,59 100,130 -3,14 -10,25 -20,35l-168 158c-9,9 -25,3 -26,-10 -11,-101 -32,-293 114,-313z"/>
   <path class="fil0" d="M5261 2205c238,-86 429,145 335,380 -196,489 -710,731 -1196,813 -8,2 -15,-3 -18,-11 -2,-8 1,-16 9,-19 137,-65 247,-158 329,-282 202,-306 155,-742 541,-881z"/>
   <path class="fil0" d="M4396 2404c87,-276 369,-169 398,63 42,340 -80,611 -367,813 -48,34 -66,22 -54,-36 60,-274 -58,-580 23,-840z"/>
   <path class="fil0" d="M5653 2655c3,-88 -7,-290 117,-271 50,8 79,61 58,107 -32,74 -83,133 -153,177 -16,10 -23,5 -22,-13z"/>
   <path class="fil0" d="M3010 2989c23,15 15,49 -12,53 -497,75 -1447,413 -1756,-164 -156,-291 111,-441 370,-412 486,55 953,230 1398,523z"/>
   <path class="fil0" d="M5854 2667c76,31 101,90 73,176 -5,17 -19,30 -36,34l-371 95c-21,5 -27,-3 -20,-23 42,-110 202,-346 354,-282z"/>
   <path class="fil0" d="M4564 3455c212,-20 405,-87 579,-202 189,-123 576,-407 762,-123 260,400 -933,442 -1090,437 -132,-5 -260,-45 -389,-80 -15,-4 -17,-24 -2,-30 46,-20 99,2 140,-2z"/>
   <path class="fil0" d="M1606 3257c39,13 38,23 -2,30 -147,28 -497,130 -524,-121 -5,-49 32,-93 81,-96 147,-9 301,138 445,187z"/>
   <path class="fil0" d="M1176 3766c-215,-228 226,-384 370,-394 205,-16 410,-42 614,-80 24,-4 41,25 24,44 -179,199 -714,740 -1008,430z"/>
   <path class="fil0" d="M5781 3527c-8,-3 -10,-13 -4,-19l148 -136c7,-7 16,-11 26,-12 45,-4 78,14 98,54 8,16 5,34 -6,47 -69,80 -157,102 -262,66z"/>
   <path class="fil0" d="M5203 3633c172,-34 800,-192 800,180 0,14 -8,27 -20,34 -174,95 -596,-128 -782,-194 -9,-4 -8,-18 2,-20z"/>
   <path class="fil0" d="M5702 3953c94,70 220,261 101,357 -239,192 -896,-399 -1077,-534 -106,-79 -232,-109 -354,-169 -18,-8 -11,-35 9,-33 108,9 227,51 317,62 318,38 742,123 1004,317z"/>
   <path class="fil0" d="M1609 4502c-99,55 -311,36 -320,-112 -20,-298 532,-636 757,-779 17,-10 24,-5 21,14 -47,291 -180,721 -458,877z"/>
   <path class="fil0" d="M4422 3679c321,170 1310,977 800,1390 -10,8 -22,13 -35,14 -177,14 -271,-167 -320,-323 -150,-481 -252,-746 -494,-1042 -13,-16 -5,-42 15,-48 7,-2 18,1 34,9z"/>
   <path class="fil0" d="M4298 4772c-42,-54 -52,-119 -30,-197 68,-251 99,-502 92,-753 -1,-26 32,-37 46,-16 191,277 300,767 -51,977 -19,11 -43,7 -57,-11z"/>
   <path class="fil0" d="M1185 4070c-66,-9 -70,-104 -5,-119 101,-22 202,-32 303,-28 19,1 22,9 10,23 -80,100 -183,141 -308,124z"/>
   <path class="fil1" d="M2966 4138c29,159 -4,401 -103,536 -10,15 -32,15 -43,1 -134,-176 -27,-380 117,-545 15,-18 25,-15 29,8z"/>
   <path class="fil0" d="M1673 4974c-30,-6 -53,-30 -58,-62 -25,-183 238,-504 326,-670 12,-21 45,-16 49,9 31,210 24,787 -317,723z"/>
   <path class="fil0" d="M5584 4429c220,132 2,493 -144,221 -69,-132 -146,-262 -227,-391 -11,-16 8,-36 25,-26 114,61 229,126 346,196z"/>
   <path class="fil0" d="M4502 5532c-140,-34 -98,-299 -56,-393 94,-216 161,-437 200,-663 4,-25 39,-29 49,-5 118,294 272,761 -1,1003 -62,55 -126,75 -192,58z"/>
   <path class="fil0" d="M1690 4569c-38,93 -106,144 -205,150 -56,4 -75,-72 -24,-95l195 -87c38,-17 49,-6 34,32z"/>
   <path class="fil0" d="M2081 5309c-295,47 -57,-504 -17,-605 5,-14 25,-14 30,0 47,115 195,571 -13,605z"/>
   <path class="fil0" d="M4149 4967c-31,1 -51,-30 -40,-57l70 -179c5,-15 27,-15 34,0 27,61 35,235 -64,236z"/>
   <path class="fil0" d="M3921 5451c-37,-5 -61,-42 -49,-78 79,-235 424,-453 610,-621 8,-7 21,0 19,11 -47,233 -280,724 -580,688z"/>
   <path class="fil0" d="M5034 5341c-12,37 -34,52 -67,44 -21,-5 -37,-23 -40,-44l-38 -303c-2,-19 5,-24 21,-14 126,74 167,180 124,317z"/>
   <path class="fil0" d="M2930 5609c15,4 27,13 38,25 8,10 2,25 -11,26 -251,20 -624,-95 -699,-372 -13,-48 39,-87 81,-62 229,137 306,298 591,383z"/>
   <path class="fil0" d="M4351 5256c11,-10 28,-2 28,12 -3,228 -127,563 -412,495 -54,-13 -75,-77 -40,-119 71,-88 159,-164 261,-228 68,-43 105,-104 163,-160z"/>
   <path class="fil0" d="M3898 5527c22,4 26,13 11,29 -157,177 -379,315 -623,225 -8,-3 -16,-8 -24,-14 -68,-54 -78,-105 -28,-150 117,-109 509,-110 664,-90z"/>
   <path class="fil0" d="M9674 1455l876 2064c7,16 1,25 -16,26l-180 4 -177 -412c-6,-15 -18,-23 -34,-23l-933 0c-16,0 -27,7 -34,22l-165 390c-6,14 -17,22 -33,22l-161 0c-21,0 -27,-10 -19,-30l876 -2063zm-404 1448c-4,10 4,22 15,22l778 0c11,0 19,-12 15,-22l-390 -930c-5,-13 -23,-13 -28,0l-390 930z"/>
   <path class="fil0" d="M16643 2088l-705 969c-11,15 -21,15 -32,0l-683 -944c-27,-37 -40,-33 -40,13l0 1400c0,14 -8,22 -23,22l-146 0c-11,0 -21,-10 -21,-21l0 -2038c0,-12 15,-16 22,-7l894 1250c6,8 18,8 24,0l897 -1250c7,-9 22,-5 22,7l0 2035c0,16 -8,24 -24,24l-138 0c-19,0 -28,-10 -28,-28l0 -1426c0,-22 -6,-23 -19,-6z"/>
   <path class="fil0" d="M14326 1520l178 0c6,0 11,5 11,11l0 2003c0,7 -5,12 -11,12l-178 0c-7,0 -12,-5 -12,-12l0 -2003c0,-6 5,-11 12,-11z"/>
   <path class="fil0" d="M8092 3362c221,37 332,-35 333,-215 4,-533 5,-1067 6,-1602 0,-14 8,-22 22,-22l155 0c15,0 23,8 23,24 -1,517 -1,1034 1,1551 2,349 -211,544 -576,447 -12,-3 -19,-11 -18,-24l4 -119c2,-32 18,-45 50,-40z"/>
   <path class="fil0" d="M11612 2636l436 886c9,17 3,26 -16,26l-163 0c-14,0 -27,-8 -33,-21l-423 -858c-7,-15 -19,-22 -35,-22l-334 0c-14,0 -22,7 -22,22l0 851c0,18 -9,28 -28,28l-139 0c-22,0 -33,-11 -33,-34l0 -1969c0,-12 11,-23 24,-23 332,3 768,-77 1005,209 254,306 133,710 -228,875 -14,6 -17,16 -11,30zm-591 -882l0 661c0,18 15,32 32,32l374 0c200,0 362,-158 362,-352l0 -20c0,-194 -162,-352 -362,-352l-374 0c-17,0 -32,14 -32,31z"/>
   <path class="fil0" d="M12388 1533c0,-6 6,-11 12,-11l495 -1c543,-1 984,420 985,941l0 137c1,520 -439,943 -981,944l-496 1c-6,0 -11,-6 -11,-12l-4 -1999zm196 222l2 1558c0,18 15,32 33,32l292 0c427,-1 772,-333 771,-742l0 -142c-1,-409 -347,-740 -774,-739l-292 0c-18,0 -32,15 -32,33z"/>
   <path class="fil1" d="M11021 1754c0,-17 15,-31 32,-31l374 0c200,0 362,158 362,352l0 20c0,194 -162,352 -362,352l-374 0c-17,0 -32,-14 -32,-32l0 -661z"/>
   <path class="fil1" d="M12584 1755c0,-18 14,-33 32,-33l292 0c427,-1 773,330 774,739l0 142c1,409 -344,741 -771,742l-292 0c-18,0 -33,-14 -33,-32l-2 -1558z"/>
   <path class="fil1" d="M9270 2903l390 -930c5,-13 23,-13 28,0l390 930c4,10 -4,22 -15,22l-778 0c-11,0 -19,-12 -15,-22z"/>
   <path class="fil0" d="M9058 3993l204 0c13,0 20,15 12,25l-328 403c-3,3 -7,6 -12,6l-119 0c-12,0 -20,-14 -14,-24l244 -403c2,-5 7,-7 13,-7z"/>
   <path class="fil0" d="M9296 6040l-878 0c-6,0 -12,3 -14,9l-164 382c-2,6 -8,9 -14,9l-165 0c-12,0 -19,-11 -15,-22l795 -1881c5,-12 23,-12 28,0l794 1881c4,11 -3,22 -14,22l-164 0c-6,0 -12,-3 -14,-9l-161 -382c-2,-6 -8,-9 -14,-9zm-811 -188c-4,10 4,21 14,21l713 0c10,0 17,-11 13,-21l-356 -857c-5,-12 -22,-12 -27,0l-357 857z"/>
   <path class="fil0" d="M10833 5130l0 1277c0,18 -15,33 -33,33l-123 0c-14,0 -22,-7 -22,-22l0 -1871c0,-25 7,-27 22,-7l814 1141c10,14 30,14 40,0l810 -1139c8,-12 27,-5 27,9l0 1861c0,19 -9,28 -28,28l-122 0c-19,0 -28,-9 -28,-28l1 -1296c0,-10 -13,-14 -19,-6l-646 884c-10,15 -21,15 -31,1l-638 -873c-16,-22 -24,-19 -24,8z"/>
   <path class="fil0" d="M16480 6040l-880 0c-6,0 -12,3 -14,9l-163 382c-2,6 -8,9 -14,9l-166 0c-11,0 -19,-11 -14,-22l795 -1877c5,-13 23,-13 28,0l794 1877c4,10 -3,21 -14,21l-164 2c-6,0 -12,-4 -14,-10l-160 -382c-2,-6 -8,-9 -14,-9zm-811 -188c-5,10 3,21 14,21l712 -1c11,0 18,-11 14,-21l-357 -854c-6,-13 -24,-13 -29,0l-354 855z"/>
   <path class="fil0" d="M14887 5777c-215,-249 -706,-209 -784,-586 -114,-542 594,-862 929,-395 7,9 6,17 -2,25 -65,64 -128,72 -188,24 -413,-326 -813,273 -389,490 154,79 427,165 558,311 465,516 -468,1221 -993,500 -13,-17 -9,-30 11,-37l125 -48c14,-6 25,-2 34,11 299,474 992,43 699,-295z"/>
   <path class="fil0" d="M13002 5627l0 614c0,12 10,21 22,21l713 0c12,0 22,9 22,21l0 136c0,12 -10,21 -22,21l-902 0c-12,0 -22,-9 -22,-21l0 -1815c0,-12 10,-22 22,-22l902 0c12,0 22,10 22,22l0 135c0,12 -10,21 -22,21l-713 0c-12,0 -22,10 -22,22l0 613c0,12 10,22 22,22l620 0c12,0 22,9 21,21l-2 147c0,11 -10,21 -21,21l-618 0c-12,0 -22,9 -22,21z"/>
   <path class="fil1" d="M8485 5852l357 -857c5,-12 22,-12 27,0l356 857c4,10 -3,21 -13,21l-713 0c-10,0 -18,-11 -14,-21z"/>
   <path class="fil1" d="M15669 5852l354 -855c5,-13 23,-13 29,0l357 854c4,10 -3,21 -14,21l-712 1c-11,0 -19,-11 -14,-21z"/>
  </g>
 </g>
</svg>
